# xmcd CD database file
#
# Track frame offsets:
#	150
#	14413
#	28961
#	41629
#	56658
#	75076
#	90331
#	104478
#	118473
#	130752
#	149057
#	162248
#	176407
#	188461
#	204751
#	216325
#	229186
#	241976
#	252452
#	263349
#	284362
#	295605
#	310748
#	325467
#	340964
#
# Disc length: 4747 seconds
#
# Revision: 0
# Processed by: cddbd v1.5.2PL0 Copyright (c) Steve Scherf et al.
# Submitted via: CDex 1.70beta2
#
DISCID=68128919
DTITLE=Jones Country - Jones Country JCY-022
DYEAR=0000
DGENRE=Country
TTITLE0=Forrester Sisters/(That's What You Do) When You're In Love
TTITLE1=Forrester and Lloyd/Sure Thing
TTITLE2=Janie Fricke/If The Fall Don't Get You
TTITLE3=Mickey Gilley/Put Your Dreams Away
TTITLE4=Jim Glaser/If I Could Only Dance With You
TTITLE5=Jim Glaser/You're Gettin' To Me Again
TTITLE6=Mark Gray/Please Be Love
TTITLE7=Lee Greenwood/Don't Underestimate My Love For You
TTITLE8=Lee Greenwood/You've Got A Good Love Comin'
TTITLE9=Merle Haggard/Going Where The Lonely Go
TTITLE10=Merle Haggard/The Way I Am
TTITLE11=Emmylou Harris/Heartbreak Hill
TTITLE12=Waylon Jennings/Clyde
TTITLE13=Waylon Jennings/Fallin' Out
TTITLE14=Waylon Jennings/Ladies Love Outlaws
TTITLE15=Waylon Jennings/Shine
TTITLE16=Waylon Jennings/Eagle
TTITLE17=George Jones/I'm A One Woman Man
TTITLE18=George Jones and Tammy Wynette/Near You
TTITLE19=Brenda Lee/Big Four Poster Bed
TTITLE20=Brenda Lee/Fool #1
TTITLE21=Johnny Lee/Save The Last Chance
TTITLE22=Barbara Mandrell/Angel In Your Arms
TTITLE23=Barbara Mandrell/There's No Love In Tennessee
TTITLE24=Louise Mandrell/I Wanna Say Yes
EXTD=YEAR: 0000
EXTT0=
EXTT1=
EXTT2=
EXTT3=
EXTT4=
EXTT5=
EXTT6=
EXTT7=
EXTT8=
EXTT9=
EXTT10=
EXTT11=
EXTT12=
EXTT13=
EXTT14=
EXTT15=
EXTT16=
EXTT17=
EXTT18=
EXTT19=
EXTT20=
EXTT21=
EXTT22=
EXTT23=
EXTT24=
PLAYORDER=
